<svg width="14" height="14" viewBox="0 0 10 10" fill="none" xmlns="http://www.w3.org/2000/svg">
<path d="M1.02247 3.30813C1.13967 3.19096 1.29862 3.12514 1.46434 3.12514C1.63007 3.12514 1.78901 3.19096 1.90622 3.30813L4.99997 6.40188L8.09372 3.30813C8.2116 3.19428 8.36947 3.13128 8.53335 3.13271C8.69722 3.13413 8.85398 3.19986 8.96986 3.31574C9.08574 3.43162 9.15147 3.58838 9.15289 3.75225C9.15431 3.91613 9.09132 4.074 8.97747 4.19188L5.44184 7.7275C5.32464 7.84467 5.1657 7.9105 4.99997 7.9105C4.83424 7.9105 4.6753 7.84467 4.55809 7.7275L1.02247 4.19188C0.9053 4.07467 0.839478 3.91573 0.839478 3.75C0.839478 3.58428 0.9053 3.42533 1.02247 3.30813Z" fill="#000000"/>
</svg>
