<svg width="40" height="40" viewBox="0 0 40 40" fill="none" xmlns="http://www.w3.org/2000/svg">
<path d="M16.6667 33.3333C15.7826 33.3333 14.9348 32.9821 14.3097 32.357C13.6845 31.7319 13.3333 30.8841 13.3333 30C13.3333 29.1159 13.6845 28.2681 14.3097 27.643C14.9348 27.0179 15.7826 26.6667 16.6667 26.6667C17.5507 26.6667 18.3986 27.0179 19.0237 27.643C19.6488 28.2681 20 29.1159 20 30C20 30.8841 19.6488 31.7319 19.0237 32.357C18.3986 32.9821 17.5507 33.3333 16.6667 33.3333ZM28.3333 33.3333C27.4493 33.3333 26.6014 32.9821 25.9763 32.357C25.3512 31.7319 25 30.8841 25 30C25 29.1159 25.3512 28.2681 25.9763 27.643C26.6014 27.0179 27.4493 26.6667 28.3333 26.6667C29.2174 26.6667 30.0652 27.0179 30.6904 27.643C31.3155 28.2681 31.6667 29.1159 31.6667 30C31.6667 30.8841 31.3155 31.7319 30.6904 32.357C30.0652 32.9821 29.2174 33.3333 28.3333 33.3333ZM6.60334 9.87167C6.18728 9.85825 5.79274 9.68354 5.50317 9.38448C5.2136 9.08541 5.0517 8.68545 5.0517 8.26917C5.0517 7.85289 5.2136 7.45293 5.50317 7.15387C5.79274 6.85481 6.18728 6.68009 6.60334 6.66667H8.52168C10.025 6.66667 11.325 7.71001 11.6517 9.17667L13.74 18.58C14.0667 20.0467 15.3667 21.09 16.87 21.09H29.39L31.7933 11.4733H16.2183C15.8062 11.4545 15.4172 11.2776 15.1321 10.9793C14.8471 10.6809 14.6881 10.2842 14.6881 9.87167C14.6881 9.45909 14.8471 9.0624 15.1321 8.76409C15.4172 8.46577 15.8062 8.28881 16.2183 8.27001H31.7933C32.2806 8.26986 32.7614 8.3808 33.1993 8.5944C33.6372 8.80799 34.0207 9.11861 34.3205 9.50265C34.6204 9.88668 34.8287 10.334 34.9297 10.8107C35.0307 11.2873 35.0217 11.7807 34.9033 12.2533L32.5 21.8667C32.3268 22.5603 31.9265 23.1761 31.363 23.6162C30.7995 24.0562 30.105 24.2951 29.39 24.295H16.87C15.4113 24.2952 13.9962 23.7979 12.8584 22.8852C11.7205 21.9725 10.928 20.699 10.6117 19.275L8.52168 9.87167H6.60334Z" fill="#FF4081"/>
</svg>
