<svg width="32" height="32" viewBox="0 0 32 32" fill="none" xmlns="http://www.w3.org/2000/svg">
<path d="M29.0508 25.75C27.2976 22.7271 24.5759 20.3841 21.3258 19.1C22.9209 17.9037 24.0992 16.2358 24.6937 14.3326C25.2882 12.4294 25.2689 10.3874 24.6383 8.49584C24.0078 6.60427 22.7981 4.95904 21.1806 3.7932C19.5631 2.62735 17.6197 2 15.6258 2C13.632 2 11.6886 2.62735 10.0711 3.7932C8.45357 4.95904 7.24387 6.60427 6.61335 8.49584C5.98282 10.3874 5.96345 12.4294 6.55796 14.3326C7.15247 16.2358 8.33073 17.9037 9.92584 19.1C6.6758 20.3841 3.95403 22.7271 2.20084 25.75C2.00192 26.0948 1.94812 26.5045 2.05127 26.8889C2.15441 27.2734 2.40606 27.6011 2.75084 27.8C3.09562 27.9989 3.5053 28.0527 3.88975 27.9496C4.2742 27.8464 4.60192 27.5948 4.80084 27.25C5.89798 25.3499 7.47594 23.7721 9.37611 22.6751C11.2763 21.5781 13.4317 21.0005 15.6258 21.0005C17.8199 21.0005 19.9754 21.5781 21.8756 22.6751C23.7757 23.7721 25.3537 25.3499 26.4508 27.25C26.5835 27.4773 26.7733 27.6661 27.0012 27.7976C27.2292 27.9292 27.4876 27.9989 27.7508 28C28.0143 28.0021 28.2734 27.933 28.5008 27.8C28.6716 27.7016 28.8214 27.5705 28.9415 27.4142C29.0616 27.2578 29.1497 27.0794 29.2007 26.889C29.2518 26.6986 29.2649 26.5 29.2392 26.3046C29.2134 26.1091 29.1494 25.9207 29.0508 25.75ZM9.12584 11.5C9.12584 10.2144 9.50706 8.95771 10.2213 7.88879C10.9355 6.81987 11.9507 5.98675 13.1384 5.49478C14.3261 5.00281 15.633 4.87409 16.8939 5.1249C18.1548 5.3757 19.313 5.99476 20.222 6.90381C21.1311 7.81285 21.7501 8.97104 22.0009 10.2319C22.2517 11.4928 22.123 12.7997 21.6311 13.9874C21.1391 15.1752 20.306 16.1903 19.237 16.9046C18.1681 17.6188 16.9114 18 15.6258 18C13.9019 18 12.2486 17.3152 11.0296 16.0962C9.81066 14.8772 9.12584 13.2239 9.12584 11.5Z" fill="#A8A8A8"/>
</svg>
